<?xml version="1.0" encoding="utf-8"?>
<!-- Generator: Adobe Illustrator 19.2.1, SVG Export Plug-In . SVG Version: 6.00 Build 0)  -->
<svg version="1.1" xmlns="http://www.w3.org/2000/svg" xmlns:xlink="http://www.w3.org/1999/xlink" x="0px" y="0px"
	 viewBox="0 0 207.3 113.3" style="enable-background:new 0 0 207.3 113.3;" xml:space="preserve">
<style type="text/css">
	.st0{fill:#56B265;}
	.st1{fill:#FFFFFF;}
	.st2{fill:none;stroke:#FFFFFF;stroke-width:2;stroke-miterlimit:10;}
	.st3{fill:none;stroke:#FFFFFF;stroke-miterlimit:10;}
	.st4{fill:none;stroke:#FFFFFF;stroke-width:4;stroke-miterlimit:10;}
	.st5{fill:none;stroke:#FFFFFF;stroke-width:3;stroke-miterlimit:10;}
	.st6{fill:#56B265;stroke:#FFFFFF;stroke-width:3;stroke-miterlimit:10;}
</style>
<g id="Background">
</g>
<g id="Objects">
	<g>
		<g>
			<path class="st1" d="M18.6,56.4v3.3H11V74H7.3V41.1h13.1v3.3H11v12H18.6z"/>
			<path class="st1" d="M33.9,41.1c5.2,0,7.3,2.6,7.3,7.5v2.7c0,3.6-1.3,5.9-4.1,6.8c3,0.9,4.1,3.3,4.1,6.9v5.1c0,1.5,0,2.8,0.7,3.9
				h-3.7c-0.4-0.9-0.6-1.8-0.6-4v-5.2c0-3.7-1.7-4.9-4.8-4.9h-2.6V74h-3.7V41.1H33.9z M33,56.6c2.9,0,4.7-0.9,4.7-4.5V49
				c0-3-1.1-4.5-3.8-4.5h-3.6v12.2H33z"/>
			<path class="st1" d="M60.1,55.7V59h-8v11.7h9.9V74H48.4V41.1h13.5v3.3h-9.9v11.2H60.1z"/>
			<path class="st1" d="M82.8,49v0.9h-3.5v-1.1c0-3-1.1-4.7-3.8-4.7s-3.8,1.7-3.8,4.7c0,7.4,11,8.1,11,17.3c0,5-2.4,8.2-7.4,8.2
				c-5,0-7.4-3.2-7.4-8.2v-1.9h3.4v2.1c0,3,1.2,4.7,3.9,4.7c2.6,0,3.9-1.7,3.9-4.7c0-7.3-11-8-11-17.3c0-5.1,2.4-8.2,7.3-8.2
				C80.5,40.8,82.8,44,82.8,49z"/>
			<path class="st1" d="M93,59.2V74h-3.7V41.1H93v14.8h8.1V41.1h3.7V74h-3.7V59.2H93z"/>
			<path class="st1" d="M133.7,56.4v3.3h-7.6V74h-3.7V41.1h13.1v3.3h-9.4v12H133.7z"/>
			<path class="st1" d="M141.4,49.1c0-5,2.5-8.3,7.5-8.3c5.1,0,7.6,3.2,7.6,8.3v17c0,5-2.5,8.3-7.6,8.3c-5,0-7.5-3.3-7.5-8.3V49.1z
				 M145,66.3c0,3,1.3,4.7,3.9,4.7c2.7,0,3.9-1.7,3.9-4.7V48.9c0-3-1.2-4.7-3.9-4.7c-2.6,0-3.9,1.8-3.9,4.7V66.3z"/>
			<path class="st1" d="M163,49.1c0-5,2.5-8.3,7.5-8.3c5.1,0,7.6,3.2,7.6,8.3v17c0,5-2.5,8.3-7.6,8.3c-5,0-7.5-3.3-7.5-8.3V49.1z
				 M166.6,66.3c0,3,1.3,4.7,3.9,4.7c2.7,0,3.9-1.7,3.9-4.7V48.9c0-3-1.2-4.7-3.9-4.7c-2.6,0-3.9,1.8-3.9,4.7V66.3z"/>
			<path class="st1" d="M192.5,41.1c5.1,0,7.5,3.1,7.5,8.2v16.6c0,5-2.3,8.1-7.5,8.1h-7.7V41.1H192.5z M192.5,70.7
				c2.6,0,3.9-1.6,3.9-4.7V49.1c0-3-1.3-4.7-3.9-4.7h-3.9v26.2H192.5z"/>
		</g>
		<g>
			<path class="st1" d="M70.6,22.1l2.7-0.7l0.2,0.6l-2.7,0.7L70.6,22.1z"/>
			<path class="st1" d="M83.4,19.4l0.1,0.6l-2.8,0.5l0.7,4.3l3.4-0.6l0.1,0.6l-4.1,0.7l-1.7-10.4l4.1-0.7l0.1,0.6l-3.4,0.6l0.7,4.2
				L83.4,19.4z"/>
			<path class="st1" d="M90.9,16.1l0,0.2l-0.7,0.1l0-0.3c-0.1-1.1-0.6-1.9-1.8-1.8c-1.1,0.1-1.5,1-1.3,2.1c0.3,2.5,4.1,2.1,4.4,5
				c0.2,1.5-0.4,2.7-2,2.9C88,24.6,87.2,23.6,87,22l-0.1-0.5l0.7-0.1l0.1,0.6c0.1,1.1,0.7,1.9,1.8,1.7c1.1-0.1,1.5-1,1.4-2.1
				c-0.3-2.5-4.1-2.1-4.4-5c-0.2-1.6,0.4-2.7,1.9-2.8C89.9,13.6,90.7,14.6,90.9,16.1z"/>
			<path class="st1" d="M96.1,23.7l-0.6-9.8L93.3,14l0-0.6l5-0.3l0,0.6l-2.1,0.1l0.6,9.8L96.1,23.7z"/>
			<path class="st1" d="M100.9,22.2l0,1.3l-0.7,0l0-1.3L100.9,22.2z"/>
			<path class="st1" d="M112.1,15.7c-0.1,3-3.9,4-4.1,7l0,0.1l3.8,0.1l0,0.6l-4.4-0.1l0-0.5c0.1-3.7,4-4.4,4.1-7.3
				c0-1.2-0.3-2.1-1.5-2.1c-1.2,0-1.6,0.9-1.6,2l0,0.7l-0.7,0l0-0.7c0-1.5,0.7-2.7,2.4-2.6C111.6,13,112.2,14.1,112.1,15.7z"/>
			<path class="st1" d="M115,15.8c0.1-1.5,0.9-2.6,2.5-2.5c1.6,0.1,2.2,1.3,2.1,2.8l-0.4,5.4c-0.1,1.5-0.9,2.6-2.5,2.5
				c-1.6-0.1-2.2-1.3-2.1-2.8L115,15.8z M115.2,21.2c-0.1,1.2,0.3,2,1.5,2.1s1.7-0.7,1.8-1.9l0.4-5.4c0.1-1.1-0.3-2-1.5-2.1
				c-1.2-0.1-1.7,0.7-1.8,1.8L115.2,21.2z"/>
			<path class="st1" d="M124.6,15.4c-0.4,0.4-1,0.7-1.7,0.7l0.1-0.6c1,0.1,1.6-0.5,2-1.2l0.5,0.1l-1.4,10.4l-0.7-0.1L124.6,15.4z"/>
			<path class="st1" d="M132.8,18.2c-0.5,3-4.5,3.3-5.1,6.4l0,0.1l3.7,0.7l-0.1,0.6l-4.4-0.8l0.1-0.5c0.7-3.6,4.6-3.7,5.1-6.6
				c0.2-1.2,0-2.1-1.2-2.3c-1.1-0.2-1.7,0.6-1.9,1.7l-0.1,0.7l-0.6-0.1l0.1-0.7c0.3-1.5,1.1-2.5,2.7-2.3
				C132.7,15.4,133.1,16.7,132.8,18.2z"/>
			<path class="st1" d="M138.9,21.9l2.7,0.7l-0.2,0.6l-2.7-0.7L138.9,21.9z"/>
		</g>
		<g>
			<path class="st1" d="M60.5,100.3V89.1h1.2v10.1H65v1.1H60.5z"/>
			<path class="st1" d="M66.9,91.8c0-1.7,0.8-2.8,2.6-2.8c1.7,0,2.6,1.1,2.6,2.8v5.8c0,1.7-0.8,2.8-2.6,2.8c-1.7,0-2.6-1.1-2.6-2.8
				V91.8z M68.2,97.7c0,1,0.4,1.6,1.3,1.6c0.9,0,1.3-0.6,1.3-1.6v-5.9c0-1-0.4-1.6-1.3-1.6c-0.9,0-1.3,0.6-1.3,1.6V97.7z"/>
			<path class="st1" d="M79.3,91.8v1h-1.2v-1.1c0-1-0.4-1.6-1.3-1.6c-0.9,0-1.3,0.6-1.3,1.6v5.9c0,1,0.4,1.6,1.3,1.6
				c0.9,0,1.3-0.6,1.3-1.6v-1.5h1.2v1.4c0,1.7-0.8,2.8-2.5,2.8c-1.7,0-2.5-1.1-2.5-2.8v-5.8c0-1.7,0.8-2.8,2.5-2.8
				C78.5,89,79.3,90.1,79.3,91.8z"/>
			<path class="st1" d="M82.8,98l-0.4,2.3h-1.2l2.1-11.2h1.8l2.1,11.2h-1.2L85.7,98H82.8z M83,97h2.5l-1.3-6.5L83,97z"/>
			<path class="st1" d="M89.4,100.3V89.1h1.2v10.1h3.2v1.1H89.4z"/>
			<path class="st1" d="M104.5,91.8v1h-1.2v-1c0-1-0.4-1.6-1.3-1.6c-0.9,0-1.3,0.6-1.3,1.6v5.9c0,1,0.4,1.6,1.3,1.6
				c0.9,0,1.3-0.6,1.3-1.6v-2.2h-1.2v-1.1h2.3v3.3c0,1.7-0.8,2.8-2.5,2.8c-1.7,0-2.5-1.1-2.5-2.8v-5.8c0-1.7,0.8-2.8,2.5-2.8
				C103.7,89,104.5,90.1,104.5,91.8z"/>
			<path class="st1" d="M106.7,91.8c0-1.7,0.8-2.8,2.6-2.8c1.7,0,2.6,1.1,2.6,2.8v5.8c0,1.7-0.8,2.8-2.6,2.8c-1.7,0-2.6-1.1-2.6-2.8
				V91.8z M107.9,97.7c0,1,0.4,1.6,1.3,1.6c0.9,0,1.3-0.6,1.3-1.6v-5.9c0-1-0.4-1.6-1.3-1.6c-0.9,0-1.3,0.6-1.3,1.6V97.7z"/>
			<path class="st1" d="M115.3,97.7c0,1,0.4,1.6,1.3,1.6c0.9,0,1.3-0.6,1.3-1.6v-8.6h1.2v8.5c0,1.7-0.8,2.8-2.5,2.8
				c-1.7,0-2.5-1.1-2.5-2.8v-8.5h1.2V97.7z"/>
			<path class="st1" d="M124,89.1c1.8,0,2.5,0.9,2.5,2.6v0.9c0,1.2-0.4,2-1.4,2.3c1,0.3,1.4,1.1,1.4,2.3V99c0,0.5,0,1,0.2,1.3h-1.3
				c-0.1-0.3-0.2-0.6-0.2-1.4v-1.8c0-1.3-0.6-1.7-1.6-1.7h-0.9v4.8h-1.2V89.1H124z M123.6,94.4c1,0,1.6-0.3,1.6-1.5v-1.1
				c0-1-0.4-1.5-1.3-1.5h-1.2v4.1H123.6z"/>
			<path class="st1" d="M133,100.3h-1.2l-1.9-8.9v8.9h-1.1V89.1h1.7l1.8,8.9l1.8-8.9h1.7v11.2h-1.2v-9L133,100.3z"/>
			<path class="st1" d="M142.4,94.1v1.1h-2.7v4h3.4v1.1h-4.6V89.1h4.6v1.1h-3.4v3.8H142.4z"/>
			<path class="st1" d="M146.9,100.3V90.2h-2.1v-1.1h5.4v1.1h-2.1v10.1H146.9z"/>
		</g>
	</g>
</g>
</svg>
